<svg width="18" height="18" viewBox="0 0 18 18" fill="none" xmlns="http://www.w3.org/2000/svg">
<path d="M8.87417 7.08999C8.46599 7.08999 8.06698 7.21103 7.7276 7.4378C7.38821 7.66457 7.12369 7.98689 6.96749 8.364C6.81129 8.7411 6.77042 9.15606 6.85005 9.55639C6.92968 9.95673 7.12623 10.3245 7.41486 10.6131C7.70348 10.9017 8.07121 11.0983 8.47155 11.1779C8.87188 11.2575 9.28684 11.2167 9.66394 11.0605C10.041 10.9042 10.3634 10.6397 10.5901 10.3003C10.8169 9.96096 10.9379 9.56195 10.9379 9.15377C10.9379 8.88275 10.8846 8.61439 10.7808 8.364C10.6771 8.11361 10.5251 7.8861 10.3335 7.69446C10.1418 7.50282 9.91433 7.3508 9.66394 7.24709C9.41355 7.14337 9.14519 7.08999 8.87417 7.08999ZM17.1376 5.05118C17.1332 4.40855 17.0149 3.77178 16.7881 3.17048C16.6211 2.73048 16.3626 2.3309 16.0298 1.99811C15.697 1.66532 15.2975 1.40689 14.8575 1.23985C14.2562 1.01306 13.6194 0.894722 12.9768 0.890344C11.9033 0.832092 11.587 0.832092 8.87417 0.832092C6.1613 0.832092 5.84508 0.832092 4.77158 0.890344C4.12895 0.894722 3.49218 1.01306 2.89088 1.23985C2.45088 1.40689 2.0513 1.66532 1.71851 1.99811C1.38572 2.3309 1.12728 2.73048 0.960252 3.17048C0.733457 3.77178 0.61512 4.40855 0.610742 5.05118C0.55249 6.12468 0.55249 6.4409 0.55249 9.15377C0.55249 11.8666 0.55249 12.1829 0.610742 13.2564C0.619699 13.9013 0.737876 14.54 0.960252 15.1454C1.12654 15.5834 1.38477 15.9806 1.71753 16.3104C2.04889 16.6452 2.44932 16.9036 2.89088 17.0677C3.49218 17.2945 4.12895 17.4128 4.77158 17.4172C5.84508 17.4754 6.1613 17.4754 8.87417 17.4754C11.587 17.4754 11.9033 17.4754 12.9768 17.4172C13.6194 17.4128 14.2562 17.2945 14.8575 17.0677C15.299 16.9036 15.6994 16.6452 16.0308 16.3104C16.3636 15.9806 16.6218 15.5834 16.7881 15.1454C17.0147 14.5411 17.133 13.9017 17.1376 13.2564C17.1958 12.1829 17.1958 11.8666 17.1958 9.15377C17.1958 6.4409 17.1958 6.12468 17.1376 5.05118ZM15.0239 11.7085C14.9972 12.2221 14.8876 12.7279 14.6993 13.2064C14.5378 13.6056 14.2976 13.9682 13.9931 14.2727C13.6886 14.5772 13.326 14.8174 12.9268 14.9789C12.4438 15.1567 11.9351 15.2551 11.4206 15.2702C10.7632 15.2702 10.5884 15.2702 8.87417 15.2702C7.1599 15.2702 6.98515 15.2702 6.32773 15.2702C5.81323 15.2551 5.30457 15.1567 4.82151 14.9789C4.40884 14.8256 4.03618 14.5809 3.73137 14.2633C3.42985 13.9647 3.19699 13.6041 3.04899 13.2064C2.87054 12.7239 2.77488 12.2146 2.76606 11.7002C2.76606 11.0428 2.76606 10.868 2.76606 9.15377C2.76606 7.4395 2.76606 7.26475 2.76606 6.60734C2.77488 6.09291 2.87054 5.58367 3.04899 5.10111C3.20235 4.68844 3.447 4.31578 3.76466 4.01097C4.06452 3.71108 4.42479 3.47846 4.82151 3.3286C5.30457 3.15085 5.81323 3.05249 6.32773 3.03734C6.98515 3.03734 7.1599 3.03734 8.87417 3.03734C10.5884 3.03734 10.7632 3.03734 11.4206 3.03734C11.9351 3.05249 12.4438 3.15085 12.9268 3.3286C13.3395 3.48195 13.7122 3.7266 14.017 4.04426C14.3185 4.3428 14.5513 4.70345 14.6993 5.10111C14.8771 5.58418 14.9754 6.09283 14.9906 6.60734C14.9906 7.26475 14.9906 7.4395 14.9906 9.15377C14.9906 10.868 15.0489 11.0428 15.0239 11.7002V11.7085ZM13.6924 5.5172C13.5933 5.24839 13.4371 5.00428 13.2345 4.80171C13.032 4.59914 12.7879 4.44292 12.5191 4.34384C12.15 4.2159 11.7612 4.15393 11.3707 4.16076C10.7216 4.16076 10.5385 4.16076 8.87417 4.16076C7.20983 4.16076 7.02676 4.16076 6.37767 4.16076C5.9851 4.1646 5.59632 4.23785 5.22927 4.37713C4.96458 4.47171 4.72306 4.62155 4.52075 4.81668C4.31844 5.01181 4.15999 5.24777 4.05592 5.50888C3.93507 5.8795 3.87603 6.26748 3.88116 6.65727C3.88116 7.30636 3.88116 7.48943 3.88116 9.15377C3.88116 10.8181 3.88116 11.0012 3.88116 11.6503C3.88941 12.0424 3.96252 12.4304 4.09753 12.7987C4.19661 13.0675 4.35282 13.3116 4.5554 13.5142C4.75797 13.7167 5.00208 13.8729 5.27088 13.972C5.62594 14.1026 5.99957 14.1756 6.37767 14.1884C7.02676 14.1884 7.20983 14.1884 8.87417 14.1884C10.5385 14.1884 10.7216 14.1884 11.3707 14.1884C11.7632 14.1845 12.152 14.1113 12.5191 13.972C12.7879 13.8729 13.032 13.7167 13.2345 13.5142C13.4371 13.3116 13.5933 13.0675 13.6924 12.7987C13.8317 12.4316 13.9049 12.0428 13.9088 11.6503C13.9088 11.0012 13.9088 10.8181 13.9088 9.15377C13.9088 7.48943 13.9088 7.30636 13.9088 6.65727C13.909 6.26432 13.8356 5.8748 13.6924 5.50888V5.5172ZM8.87417 12.3327C8.4571 12.3327 8.04414 12.2504 7.65892 12.0905C7.27371 11.9307 6.92382 11.6964 6.6293 11.4011C6.33477 11.1058 6.10141 10.7553 5.94256 10.3696C5.78372 9.98402 5.70251 9.57083 5.70361 9.15377C5.70361 8.52469 5.89026 7.90976 6.23993 7.38682C6.5896 6.86387 7.08657 6.45643 7.66791 6.21608C8.24926 5.97572 8.88886 5.91326 9.50573 6.03659C10.1226 6.15993 10.689 6.46351 11.1332 6.90892C11.5775 7.35433 11.8796 7.92153 12.0013 8.53872C12.123 9.15591 12.0589 9.79533 11.817 10.3761C11.5751 10.9568 11.1664 11.4527 10.6425 11.801C10.1187 12.1493 9.50324 12.3343 8.87417 12.3327ZM12.2028 6.59902C12.0189 6.57954 11.8486 6.49268 11.7249 6.35517C11.6012 6.21765 11.5327 6.03921 11.5327 5.85422C11.5327 5.66924 11.6012 5.4908 11.7249 5.35328C11.8486 5.21577 12.0189 5.12891 12.2028 5.10943C12.3868 5.12891 12.557 5.21577 12.6808 5.35328C12.8045 5.4908 12.873 5.66924 12.873 5.85422C12.873 6.03921 12.8045 6.21765 12.6808 6.35517C12.557 6.49268 12.3868 6.57954 12.2028 6.59902Z" fill="white"/>
</svg>
