<svg width="11" height="11" viewBox="0 0 11 11" fill="none" xmlns="http://www.w3.org/2000/svg">
<path d="M5.81227 0.240201L5.37095 0.68668C5.26619 0.792662 5.26619 0.964038 5.37095 1.07002L8.82797 4.56744L1.21852 4.56744C1.07141 4.56744 0.95105 4.6892 0.95105 4.83803L0.95105 5.46941C0.95105 5.61824 1.07141 5.74001 1.21852 5.74001L8.82797 5.74001L5.37095 9.23742C5.26619 9.3434 5.26619 9.51478 5.37095 9.62076L5.81227 10.0672C5.91703 10.1732 6.08643 10.1732 6.19119 10.0672L10.8585 5.34539C10.9633 5.23941 10.9633 5.06803 10.8585 4.96205L6.19119 0.240201C6.08643 0.134219 5.91703 0.134219 5.81227 0.240201Z" fill="white"/>
</svg>
