<svg width="18" height="18" viewBox="0 0 18 18" fill="none" xmlns="http://www.w3.org/2000/svg">
<path d="M16.707 0.832092H1.89439C1.65161 0.832092 1.41878 0.928534 1.24711 1.1002C1.07545 1.27187 0.979004 1.5047 0.979004 1.74748V16.5601C0.979004 16.6803 1.00268 16.7993 1.04868 16.9104C1.09469 17.0214 1.16211 17.1223 1.24711 17.2073C1.33212 17.2923 1.43303 17.3598 1.54409 17.4058C1.65515 17.4518 1.77418 17.4754 1.89439 17.4754H9.86656V11.0261H7.70292V8.52964H9.86656V6.65727C9.82174 6.21768 9.87363 5.77361 10.0186 5.3562C10.1636 4.9388 10.3981 4.55816 10.7058 4.24099C11.0134 3.92383 11.3867 3.67781 11.7995 3.52019C12.2123 3.36258 12.6546 3.29718 13.0954 3.3286C13.7431 3.32461 14.3905 3.35795 15.0343 3.42846V5.67531H13.7112C12.6626 5.67531 12.4629 6.17461 12.4629 6.8986V8.50468H14.9594L14.6349 11.0012H12.4629V17.4754H16.707C16.8272 17.4754 16.9462 17.4518 17.0573 17.4058C17.1683 17.3598 17.2692 17.2923 17.3542 17.2073C17.4393 17.1223 17.5067 17.0214 17.5527 16.9104C17.5987 16.7993 17.6224 16.6803 17.6224 16.5601V1.74748C17.6224 1.62727 17.5987 1.50823 17.5527 1.39717C17.5067 1.28611 17.4393 1.1852 17.3542 1.1002C17.2692 1.0152 17.1683 0.947774 17.0573 0.901772C16.9462 0.855769 16.8272 0.832092 16.707 0.832092Z" fill="white"/>
</svg>
