<svg width="17" height="18" viewBox="0 0 17 18" fill="none" xmlns="http://www.w3.org/2000/svg">
<path d="M15.496 0.832026H1.39907C1.24061 0.829825 1.08326 0.858861 0.936021 0.917476C0.788781 0.97609 0.65453 1.06314 0.540934 1.17364C0.427339 1.28415 0.336624 1.41594 0.27397 1.56151C0.211317 1.70708 0.177952 1.86356 0.175781 2.02203V16.2854C0.177952 16.4438 0.211317 16.6003 0.27397 16.7459C0.336624 16.8915 0.427339 17.0233 0.540934 17.1338C0.65453 17.2443 0.788781 17.3313 0.936021 17.3899C1.08326 17.4485 1.24061 17.4776 1.39907 17.4754H15.496C15.6545 17.4776 15.8118 17.4485 15.959 17.3899C16.1063 17.3313 16.2405 17.2443 16.3541 17.1338C16.4677 17.0233 16.5584 16.8915 16.6211 16.7459C16.6837 16.6003 16.7171 16.4438 16.7193 16.2854V2.02203C16.7171 1.86356 16.6837 1.70708 16.6211 1.56151C16.5584 1.41594 16.4677 1.28415 16.3541 1.17364C16.2405 1.06314 16.1063 0.97609 15.959 0.917476C15.8118 0.858861 15.6545 0.829825 15.496 0.832026ZM5.19375 14.7625H2.69725V7.273H5.19375V14.7625ZM3.9455 6.22447C3.6012 6.22447 3.271 6.0877 3.02755 5.84424C2.78409 5.60079 2.64732 5.27059 2.64732 4.92629C2.64732 4.58199 2.78409 4.25179 3.02755 4.00834C3.271 3.76488 3.6012 3.62811 3.9455 3.62811C4.12833 3.60738 4.31347 3.62549 4.4888 3.68127C4.66414 3.73705 4.82572 3.82924 4.96296 3.95179C5.1002 4.07435 5.21 4.22451 5.28518 4.39244C5.36037 4.56037 5.39923 4.7423 5.39923 4.92629C5.39923 5.11029 5.36037 5.29221 5.28518 5.46014C5.21 5.62808 5.1002 5.77824 4.96296 5.90079C4.82572 6.02335 4.66414 6.11553 4.4888 6.17131C4.31347 6.22709 4.12833 6.24521 3.9455 6.22447ZM14.1978 14.7625H11.7013V10.7431C11.7013 9.73622 11.3435 9.07881 10.4364 9.07881C10.1557 9.08086 9.88234 9.16892 9.6532 9.3311C9.42406 9.49328 9.25014 9.7218 9.15487 9.98587C9.08975 10.1815 9.06153 10.3875 9.07166 10.5934V14.7542H6.57515C6.57515 14.7542 6.57515 7.94706 6.57515 7.26468H9.07166V8.32154C9.29845 7.92801 9.6283 7.60381 10.0257 7.38385C10.4231 7.16389 10.8729 7.05652 11.3268 7.07328C12.9912 7.07328 14.1978 8.14678 14.1978 10.4519V14.7625Z" fill="white"/>
</svg>
