<svg width="17" height="14" viewBox="0 0 17 14" fill="none" xmlns="http://www.w3.org/2000/svg">
<path d="M16.909 1.99432C16.2835 2.26569 15.622 2.44508 14.9451 2.52691C15.6592 2.10027 16.1944 1.4291 16.4513 0.637887C15.7802 1.03738 15.0456 1.31885 14.2793 1.47005C13.7672 0.914643 13.0851 0.544931 12.3402 0.418903C11.5953 0.292876 10.8296 0.417661 10.1633 0.773688C9.49689 1.12972 8.96755 1.69685 8.65824 2.38614C8.34893 3.07542 8.27715 3.84788 8.45416 4.58236C7.09725 4.51373 5.76995 4.16041 4.55849 3.54537C3.34703 2.93032 2.27851 2.0673 1.42234 1.01236C1.12204 1.53677 0.964246 2.13065 0.964646 2.73495C0.963581 3.29615 1.1013 3.8489 1.36555 4.344C1.62979 4.8391 2.01236 5.26117 2.47919 5.57264C1.9366 5.55788 1.4056 5.41228 0.931359 5.14824V5.18985C0.935426 5.97615 1.21096 6.73692 1.71136 7.34347C2.21176 7.95001 2.90631 8.3651 3.67751 8.51852C3.38064 8.60886 3.07242 8.6565 2.76213 8.65999C2.54734 8.65748 2.33308 8.638 2.12136 8.60173C2.34098 9.27813 2.76598 9.86925 3.33722 10.2928C3.90846 10.7164 4.59754 10.9514 5.30856 10.9651C4.10791 11.9098 2.62556 12.4254 1.09779 12.4297C0.819628 12.4306 0.541685 12.4139 0.265625 12.3798C1.82546 13.3869 3.64324 13.9216 5.49996 13.9193C6.78124 13.9326 8.05233 13.6905 9.23899 13.207C10.4256 12.7236 11.5041 12.0085 12.4113 11.1036C13.3185 10.1988 14.0363 9.12216 14.5228 7.93675C15.0093 6.75134 15.2547 5.48088 15.2446 4.19956C15.2446 4.0581 15.2446 3.90831 15.2446 3.75852C15.8976 3.27154 16.4608 2.67456 16.909 1.99432Z" fill="white"/>
</svg>
